<svg width="1280" height="647" viewBox="0 0 1280 647" fill="none" xmlns="http://www.w3.org/2000/svg">
<path d="M653.5 1C653.5 1 484.949 48.1897 408 122.5C358.44 170.361 365.803 230.79 307.5 267.5C216.888 324.552 139.6 168.67 64 244.5C4.98332 303.696 137.736 411.621 127.5 496C114.035 607 0 607 0 607" stroke="#0C4AB7" stroke-width="0.4"/>
<path d="M1280.5 407C1280.5 407 1199.75 382.102 1191 340C1182.27 297.968 1255.97 247.435 1239 208C1215.13 152.53 1145.9 146.918 1089.5 168.5C1008.28 199.582 1108.17 327.803 1044 386.5C1000.8 426.012 938.114 389.536 902.5 436C838.114 520.001 1134.05 431.777 1209.5 506C1271 566.5 1172.5 648 1172.5 648" stroke="#0C4AB7" stroke-width="0.4"/>
<path d="M71 538.5C71 550.098 43.098 569.5 31.5 569.5C19.902 569.5 10.5 560.098 10.5 548.5C10.5 536.902 19.902 544.5 31.5 544.5C43.098 544.5 71 526.902 71 538.5Z" stroke="#0C4AB7" stroke-width="0.4"/>
<path d="M130.5 189.5C130.5 194.471 124.471 192.5 119.5 192.5C114.529 192.5 112.5 194.471 112.5 189.5C112.5 184.529 114.529 179.5 119.5 179.5C124.471 179.5 130.5 184.529 130.5 189.5Z" stroke="#0C4AB7" stroke-width="0.4"/>
<path d="M1250 608C1250 616 1239.97 621 1235 621C1230.03 621 1232 612.971 1232 608C1232 603.029 1229.03 589 1234 589C1238.97 589 1250 597.5 1250 608Z" stroke="#0C4AB7" stroke-width="0.4"/>
<path d="M1141 508C1141 512.971 1145.97 517 1141 517C1136.03 517 1132 512.971 1132 508C1132 503.029 1136.03 499 1141 499C1144 499 1141 503.029 1141 508Z" stroke="#0C4AB7" stroke-width="0.4"/>
<path d="M1212.5 233C1212.5 237.971 1206.97 243.5 1202 243.5C1197.03 243.5 1186.5 235.471 1186.5 230.5C1186.5 225.529 1190.5 219.5 1199.5 219.5C1207.5 219.5 1212.5 228.029 1212.5 233Z" stroke="#0C4AB7" stroke-width="0.4"/>
<path d="M1263 128C1263 132.971 1254.47 143.5 1249.5 143.5C1244.53 143.5 1244.5 141.471 1244.5 136.5C1244.5 131.529 1244.53 125.5 1249.5 125.5C1254.47 125.5 1261 116.5 1263 128Z" stroke="#0C4AB7" stroke-width="0.4"/>
</svg>
