<svg width="1280" height="78" viewBox="0 0 1280 78" fill="none" xmlns="http://www.w3.org/2000/svg">
<mask id="mask0" mask-type="alpha" maskUnits="userSpaceOnUse" x="0" y="0" width="1280" height="78">
<rect width="1280" height="78" fill="url(#paint0_linear)"/>
</mask>
<g mask="url(#mask0)">
<rect width="1280" height="78" fill="url(#paint1_linear)"/>
<path opacity="0.6" d="M1278.95 -45.7106C1298.94 -3.09177 1316.38 82.0419 1230.91 122.123C1188.34 142.089 1099.92 99 1099.92 60.7641C1099.92 32.9115 1112.37 32.4124 1154.94 12.4464C1197.52 -7.51964 1258.96 -88.3295 1278.95 -45.7106Z" fill="url(#paint2_linear)"/>
<path opacity="0.6" d="M198.968 -45.7106C218.956 -3.09177 236.394 82.0419 150.931 122.123C108.358 142.089 19.9371 99 19.9374 60.7641C19.9374 32.9115 32.3891 32.4124 74.9619 12.4464C117.535 -7.51964 178.98 -88.3295 198.968 -45.7106Z" fill="url(#paint3_linear)"/>
</g>
<defs>
<linearGradient id="paint0_linear" x1="0" y1="0" x2="1280" y2="78" gradientUnits="userSpaceOnUse">
<stop stop-color="#053ED1"/>
<stop offset="1" stop-color="#0F4EAC"/>
</linearGradient>
<linearGradient id="paint1_linear" x1="0" y1="0" x2="1280" y2="78" gradientUnits="userSpaceOnUse">
<stop stop-color="#053ED1"/>
<stop offset="1" stop-color="#0F4EAC"/>
</linearGradient>
<linearGradient id="paint2_linear" x1="1091.01" y1="19.3265" x2="1271.13" y2="-64.0925" gradientUnits="userSpaceOnUse">
<stop stop-color="#097AFF"/>
<stop offset="1" stop-color="#0041E8"/>
</linearGradient>
<linearGradient id="paint3_linear" x1="11.0295" y1="19.3265" x2="191.153" y2="-64.0925" gradientUnits="userSpaceOnUse">
<stop stop-color="#097AFF"/>
<stop offset="1" stop-color="#0041E8"/>
</linearGradient>
</defs>
</svg>
